<svg id="Layer_5" enable-background="new 0 0 64 64" height="512" viewBox="0 0 64 64" width="512" xmlns="http://www.w3.org/2000/svg"><path d="m51.26 8c-.75 0-1.42.48-1.66 1.19l-3.69 11.07c-.54 1.64-2.07 2.74-3.79 2.74h-6.12-4-4-5.17c-.53 0-1.04-.21-1.42-.59l-7.78-7.78-1.01-1.01c-.4-.4-.94-.62-1.5-.62-.58 0-1.12.24-1.5.62s-.62.92-.62 1.5c0 .56.22 1.1.62 1.5l1.41 1.41 8.29 8.29c.44.44 1.01.74 1.63.84l5.05.84v5.66h12v-5.66l4.64-.46c3.24-.33 5.96-2.58 6.88-5.71l3.41-11.59c.05-.16.07-.32.07-.49v-.01c0-.96-.78-1.74-1.74-1.74z" fill="#ff826e"/><path d="m26 33.66c1.64.23 3.3.34 4.96.34h1.04 1.04c1.66 0 3.32-.11 4.96-.34 2.9-.38 5.75-1.11 8.5-2.16 4.3-1.65 8.86-2.5 13.46-2.5h2.04v7h-2-.04c-1.32 0-2.65.07-3.96.22-3.25.34-6.44 1.11-9.5 2.28-2.76 1.06-5.63 1.79-8.54 2.17-1.63.22-3.27.33-4.92.33h-.04-2.04-.01c-1.67 0-3.33-.11-4.98-.34-2.89-.38-5.73-1.11-8.47-2.16-3.06-1.17-6.25-1.94-9.5-2.28-1.31-.15-2.64-.22-3.96-.22h-.04-2v-7h2.04c4.6 0 9.16.85 13.46 2.5 2.75 1.05 5.6 1.78 8.5 2.16z" fill="#fcd770"/><path d="m60 36v27h-4v-26.78c1.31-.15 2.64-.22 3.96-.22z" fill="#cf9e76"/><path d="m38.78 50.3c.01.07.01.14.01.21 0 1.36-1.11 2.49-2.5 2.49-1.29 0-2.37-.99-2.48-2.28l-.81-9.72h.04c1.65 0 3.29-.11 4.92-.33l.04.33z" fill="#838f9b"/><path d="m37 15v3c0 2.76-2.24 5-5 5s-5-2.24-5-5v-3z" fill="#f0d0b4"/><path d="m37 15h-10c0-2.76 2.24-5 5-5 1.38 0 2.63.56 3.54 1.46.9.91 1.46 2.16 1.46 3.54z" fill="#fcd770"/><circle cx="32" cy="32" fill="#ffc729" r="2"/><path d="m30.95 41-.84 18.62c-.06 1.33-1.16 2.38-2.5 2.38-1.38 0-2.49-1.12-2.49-2.49 0-.04 0-.08 0-.12l.85-18.73c1.65.23 3.31.34 4.98.34z" fill="#838f9b"/><path d="m21 5-5.15 6.73-4.85-8.73z" fill="#fcd770"/><path d="m8 36.22v26.78h-4v-27h.04c1.32 0 2.65.07 3.96.22z" fill="#cf9e76"/><path d="m63 28h-3.036c-4.744 0-9.395.863-13.823 2.566-2.322.894-4.71 1.534-7.141 1.936v-3.597l3.74-.374c3.663-.366 6.701-2.885 7.739-6.416l3.41-11.593c.073-.251.111-.512.111-.779 0-1.513-1.231-2.743-2.744-2.743-1.183 0-2.229.754-2.603 1.876l-3.691 11.072c-.408 1.228-1.552 2.052-2.845 2.052h-5.657c.954-1.063 1.54-2.462 1.54-4v-2h4v-2h-4.09c-.478-2.833-2.942-5-5.91-5-3.309 0-6 2.691-6 6v3c0 1.538.586 2.937 1.54 4h-4.712c-.267 0-.519-.104-.708-.293l-7.162-7.162 7.809-10.211-13.691-2.738 5.583 10.05-1.126 1.473-.205-.205c-.589-.59-1.373-.914-2.207-.914-1.721 0-3.121 1.4-3.121 3.121 0 .822.333 1.626.914 2.207l.793.793-2.502 3.271 1.589 1.215 2.339-3.059 7.479 7.479c.593.593 1.344.979 2.171 1.117l4.217.703v3.656c-2.431-.402-4.819-1.043-7.141-1.936-4.428-1.704-9.079-2.567-13.823-2.567h-3.036v9h2v26h2v-25.978c.669.017 1.336.051 2 .104v25.874h2v-25.662c2.777.38 5.501 1.08 8.141 2.095 2.531.973 5.137 1.663 7.789 2.083l-.81 17.828c-.043.963.299 1.877.965 2.574.666.698 1.564 1.082 2.528 1.082 1.875 0 3.409-1.467 3.494-3.339l.803-17.661h.17l.733 8.799c.149 1.795 1.678 3.201 3.479 3.201.974 0 1.91-.411 2.569-1.127.659-.717.991-1.685.91-2.654l-.725-8.698c2.66-.42 5.274-1.111 7.812-2.087 2.64-1.016 5.364-1.715 8.141-2.095v25.661h2v-25.874c.664-.054 1.331-.087 2-.104v25.978h2v-26h2v-9zm-50.076-23.596 6.308 1.262-3.248 4.247zm33.936 16.177 3.691-11.072c.102-.305.385-.509.705-.509.411 0 .744.333.744.749 0 .071-.01.142-.03.21l-3.41 11.592c-.807 2.746-3.17 4.705-6.019 4.99l-5.541.554v5.682c-.721.078-1.443.142-2.17.177.102-.301.17-.619.17-.954 0-1.11-.613-2.07-1.512-2.589l3.092-5.411h5.537c2.155 0 4.062-1.374 4.743-3.419zm-12.583 3.419-2.277 3.985-2.277-3.985zm-3.277 8c0-.552.449-1 1-1s1 .448 1 1-.449 1-1 1-1-.448-1-1zm1-21c1.858 0 3.411 1.279 3.858 3h-7.716c.447-1.721 2-3 3.858-3zm-4 7v-2h8v2c0 2.206-1.794 4-4 4s-4-1.794-4-4zm-17.672-2.086c-.208-.209-.328-.498-.328-.793 0-.618.503-1.121 1.121-1.121.3 0 .581.116.793.328l.393.393-1.375 1.797zm10.784 10.258c-.414-.069-.789-.262-1.085-.559l-7.668-7.668 1.375-1.797 6.973 6.973c.566.567 1.32.879 2.122.879h4.591l3.092 5.411c-.899.519-1.512 1.479-1.512 2.589 0 .335.068.653.17.954-.727-.035-1.449-.099-2.17-.177v-5.623zm6.501 34.828c-.413 0-.797-.164-1.082-.463-.286-.299-.432-.689-.414-1.102l.803-17.655c.991.104 1.988.168 2.989.196l-.8 17.595c-.036.801-.693 1.429-1.496 1.429zm10.165-10.615c.035.421-.103.823-.389 1.134s-.675.481-1.097.481c-.77 0-1.422-.601-1.486-1.367l-.721-8.657c.997-.027 1.99-.09 2.977-.194zm23.222-15.385h-1.036c-4.744 0-9.395.863-13.823 2.566-4.198 1.616-8.608 2.434-13.105 2.434h-2.071c-4.498 0-8.907-.818-13.105-2.434-4.429-1.703-9.08-2.566-13.824-2.566h-1.036v-5h1.036c4.498 0 8.907.818 13.105 2.434 4.428 1.703 9.079 2.566 13.823 2.566h2.071c4.744 0 9.395-.863 13.823-2.566 4.199-1.616 8.609-2.434 13.106-2.434h1.036z"/></svg>